<svg xmlns="http://www.w3.org/2000/svg" xmlns:xlink="http://www.w3.org/1999/xlink" width="780" zoomAndPan="magnify" viewBox="0 0 585 135.000003" height="180" preserveAspectRatio="xMidYMid meet" version="1.0"><defs><g/><clipPath id="106c917485"><path d="M 2.152344 0 L 582.847656 0 L 582.847656 134.007812 L 2.152344 134.007812 Z M 2.152344 0 " clip-rule="nonzero"/></clipPath><clipPath id="f87195f97f"><path d="M 137.019531 19.105469 L 445 19.105469 L 445 63 L 137.019531 63 Z M 137.019531 19.105469 " clip-rule="nonzero"/></clipPath><clipPath id="dd5fdcac6d"><path d="M 344 57 L 447.96875 57 L 447.96875 81.640625 L 344 81.640625 Z M 344 57 " clip-rule="nonzero"/></clipPath></defs><g clip-path="url(#106c917485)"><path fill="#ffffff" d="M 2.152344 0 L 582.847656 0 L 582.847656 134.007812 L 2.152344 134.007812 Z M 2.152344 0 " fill-opacity="1" fill-rule="nonzero"/><path fill="#ffffff" d="M 2.152344 0 L 582.847656 0 L 582.847656 134.007812 L 2.152344 134.007812 Z M 2.152344 0 " fill-opacity="1" fill-rule="nonzero"/></g><g clip-path="url(#f87195f97f)"><path fill="#000000" d="M 419.597656 50.519531 C 415.761719 49.796875 411.964844 48.847656 408.226562 47.683594 C 404.496094 46.507812 400.804688 45.167969 397.15625 43.6875 C 393.507812 42.199219 389.878906 40.609375 386.25 38.960938 L 375.265625 33.933594 C 371.554688 32.253906 367.78125 30.59375 363.894531 29.023438 C 362.917969 28.636719 361.953125 28.238281 360.957031 27.867188 L 359.472656 27.304688 L 357.972656 26.757812 C 356.976562 26.386719 355.949219 26.050781 354.941406 25.695312 C 354.433594 25.523438 353.914062 25.359375 353.402344 25.191406 C 352.886719 25.027344 352.378906 24.851562 351.855469 24.695312 C 350.8125 24.382812 349.773438 24.058594 348.710938 23.773438 C 348.183594 23.625 347.660156 23.472656 347.125 23.335938 L 345.523438 22.933594 C 344.453125 22.667969 343.386719 22.386719 342.300781 22.167969 L 340.675781 21.820312 C 340.132812 21.707031 339.59375 21.582031 339.046875 21.492188 L 335.765625 20.902344 L 332.464844 20.410156 C 332.1875 20.371094 331.914062 20.324219 331.636719 20.292969 L 330.808594 20.195312 L 329.148438 20 C 328.59375 19.9375 328.042969 19.859375 327.488281 19.816406 L 325.820312 19.667969 C 321.378906 19.277344 316.921875 19.101562 312.480469 19.144531 C 308.042969 19.1875 303.621094 19.40625 299.246094 19.804688 C 290.488281 20.589844 281.921875 22.070312 273.59375 23.988281 C 265.273438 25.929688 257.183594 28.320312 249.351562 31.066406 C 245.4375 32.4375 241.574219 33.882812 237.785156 35.425781 C 233.992188 36.957031 230.257812 38.566406 226.589844 40.25 C 234.445312 37.621094 242.359375 35.140625 250.417969 33.011719 C 258.460938 30.851562 266.636719 29.03125 274.890625 27.609375 C 279.019531 26.898438 283.175781 26.332031 287.339844 25.863281 C 289.417969 25.617188 291.507812 25.4375 293.589844 25.257812 L 296.722656 25.042969 C 297.765625 24.972656 298.8125 24.941406 299.855469 24.886719 C 304.03125 24.714844 308.199219 24.675781 312.34375 24.816406 L 315.449219 24.960938 C 316.480469 25.023438 317.507812 25.105469 318.539062 25.179688 L 319.308594 25.234375 L 320.074219 25.308594 L 321.609375 25.457031 C 322.121094 25.511719 322.632812 25.550781 323.144531 25.613281 L 324.667969 25.804688 L 326.1875 25.996094 C 326.699219 26.054688 327.195312 26.144531 327.703125 26.21875 L 329.964844 26.570312 C 330.214844 26.609375 330.460938 26.664062 330.710938 26.707031 L 333.691406 27.265625 L 336.636719 27.910156 C 337.132812 28.011719 337.613281 28.144531 338.097656 28.265625 L 339.550781 28.628906 C 340.523438 28.855469 341.46875 29.144531 342.425781 29.414062 L 343.851562 29.820312 C 344.328125 29.960938 344.792969 30.117188 345.261719 30.261719 C 346.207031 30.550781 347.132812 30.878906 348.066406 31.191406 C 355.511719 33.765625 362.628906 37.058594 369.765625 40.515625 C 376.910156 43.972656 384.09375 47.621094 391.804688 50.90625 C 393.28125 51.53125 394.773438 52.144531 396.289062 52.738281 C 391.722656 53.089844 387.140625 53.355469 382.546875 53.550781 L 378.1875 53.710938 L 373.820312 53.816406 C 372.363281 53.859375 370.90625 53.859375 369.449219 53.878906 L 367.261719 53.902344 C 366.53125 53.910156 365.800781 53.902344 365.070312 53.902344 C 359.234375 53.929688 353.382812 53.804688 347.53125 53.632812 C 341.675781 53.460938 335.816406 53.1875 329.953125 52.863281 C 324.089844 52.539062 318.21875 52.164062 312.347656 51.730469 C 300.601562 50.890625 288.839844 49.871094 277.046875 48.878906 C 265.253906 47.882812 253.421875 46.890625 241.546875 46.089844 L 237.089844 45.792969 C 235.605469 45.695312 234.117188 45.601562 232.628906 45.511719 C 229.652344 45.339844 226.664062 45.1875 223.675781 45.050781 C 222.179688 44.976562 220.679688 44.925781 219.183594 44.867188 L 214.6875 44.726562 C 213.183594 44.699219 211.683594 44.664062 210.179688 44.648438 L 207.921875 44.632812 C 207.171875 44.625 206.417969 44.625 205.664062 44.628906 C 204.160156 44.640625 202.65625 44.636719 201.148438 44.675781 L 198.890625 44.714844 C 198.136719 44.734375 197.382812 44.765625 196.628906 44.789062 L 194.371094 44.878906 L 192.113281 44.996094 C 190.609375 45.066406 189.109375 45.179688 187.605469 45.285156 C 181.601562 45.71875 175.628906 46.449219 169.753906 47.476562 C 163.882812 48.527344 158.128906 49.90625 152.601562 51.667969 C 147.082031 53.425781 141.777344 55.546875 136.878906 58.082031 C 147.464844 54.003906 158.878906 51.457031 170.449219 50.191406 C 182.042969 48.902344 193.789062 48.878906 205.476562 49.410156 C 206.207031 49.4375 206.9375 49.476562 207.671875 49.519531 L 209.863281 49.644531 C 211.324219 49.730469 212.785156 49.839844 214.246094 49.933594 L 218.632812 50.261719 C 220.09375 50.382812 221.554688 50.496094 223.015625 50.628906 C 225.941406 50.890625 228.863281 51.164062 231.789062 51.464844 C 234.714844 51.746094 237.648438 52.054688 240.574219 52.359375 C 252.289062 53.609375 264.003906 54.953125 275.757812 56.261719 C 299.257812 58.875 322.957031 61.324219 346.996094 62.253906 C 359.007812 62.726562 371.097656 62.789062 383.191406 62.292969 C 389.238281 62.023438 395.285156 61.652344 401.3125 61.085938 C 407.339844 60.515625 413.34375 59.78125 419.3125 58.886719 L 444.226562 55.144531 Z M 419.597656 50.519531 " fill-opacity="1" fill-rule="nonzero"/></g><g clip-path="url(#dd5fdcac6d)"><path fill="#4d74ff" d="M 353.492188 76.011719 C 362.773438 78.039062 372.1875 79.539062 381.652344 80.40625 C 393.523438 81.492188 405.617188 81.648438 417.414062 79.742188 C 423.148438 78.816406 428.832031 77.382812 434.210938 75.15625 C 438.621094 73.328125 446.964844 70.363281 447.761719 64.878906 C 448.042969 62.9375 448.117188 59.996094 445.675781 58.480469 C 442.527344 56.527344 438.300781 58.496094 435.355469 59.617188 C 431.832031 60.953125 428.363281 62.378906 424.5625 63.417969 C 419.816406 64.71875 414.90625 65.800781 409.941406 66.757812 C 404.351562 67.84375 398.660156 68.816406 392.90625 69.542969 C 395.746094 70.011719 400.460938 70.648438 403.011719 70.96875 C 406.0625 71.347656 409.125 71.679688 412.207031 71.945312 C 415.449219 72.226562 418.800781 72.4375 422.148438 72.546875 C 407.234375 75.542969 381.828125 78.167969 344.882812 73.925781 C 347.785156 74.667969 350.6875 75.398438 353.492188 76.011719 Z M 353.492188 76.011719 " fill-opacity="1" fill-rule="nonzero"/></g><g fill="#000000" fill-opacity="1"><g transform="translate(121.61731, 117.210985)"><g><path d="M 23.542969 -27.9375 C 23.46875 -28.128906 23.390625 -28.359375 23.3125 -28.511719 C 22.703125 -30.5 20.867188 -31.914062 18.765625 -31.914062 C 17.808594 -31.914062 16.894531 -31.644531 16.128906 -31.109375 C 15.898438 -30.996094 15.707031 -30.84375 15.554688 -30.730469 C 14.980469 -30.230469 14.410156 -29.3125 13.875 -27.9375 L 3.210938 -1.453125 C 3.097656 -1.109375 3.058594 -0.765625 3.132812 -0.535156 C 3.171875 -0.304688 3.363281 0.0390625 3.976562 0.0390625 L 8.179688 0.0390625 C 8.675781 0.0390625 9.058594 -0.265625 9.25 -0.765625 L 11.425781 -6.230469 L 19.796875 -6.230469 C 20.21875 -6.230469 20.601562 -6.421875 20.792969 -6.765625 C 21.019531 -7.070312 21.058594 -7.492188 20.945312 -7.875 L 19.570312 -11.273438 C 19.378906 -11.734375 18.957031 -12.039062 18.460938 -12.039062 L 13.722656 -12.039062 L 18.613281 -24.421875 C 18.652344 -24.5 18.6875 -24.535156 18.6875 -24.535156 L 18.84375 -24.535156 C 18.84375 -24.535156 18.84375 -24.535156 18.878906 -24.460938 L 28.359375 -0.800781 C 28.550781 -0.265625 28.933594 0.0390625 29.46875 0.0390625 L 33.558594 0.0390625 C 34.167969 0.0390625 34.320312 -0.34375 34.398438 -0.535156 C 34.472656 -0.765625 34.4375 -1.109375 34.28125 -1.453125 Z M 23.542969 -27.9375 "/></g></g></g><g fill="#000000" fill-opacity="1"><g transform="translate(159.133256, 117.210985)"><g><path d="M 29.46875 -31.492188 L 25.949219 -31.492188 C 25.605469 -31.492188 24.882812 -31.378906 24.882812 -30.195312 L 24.882812 -11.351562 C 24.882812 -10.203125 24.804688 -9.210938 24.691406 -8.484375 C 24.574219 -7.757812 24.347656 -7.183594 24.078125 -6.765625 C 23.773438 -6.382812 23.429688 -6.113281 22.933594 -5.925781 C 22.433594 -5.769531 21.746094 -5.65625 20.945312 -5.65625 L 12.6875 -5.65625 C 11.886719 -5.65625 11.199219 -5.769531 10.703125 -5.925781 C 10.203125 -6.113281 9.859375 -6.382812 9.554688 -6.765625 C 9.289062 -7.183594 9.058594 -7.757812 8.90625 -8.484375 C 8.789062 -9.210938 8.714844 -10.203125 8.714844 -11.351562 L 8.714844 -30.195312 C 8.714844 -31.378906 7.988281 -31.492188 7.644531 -31.492188 L 4.164062 -31.492188 C 3.820312 -31.492188 3.058594 -31.378906 3.058594 -30.195312 L 3.058594 -11.960938 C 3.058594 -9.824219 3.210938 -7.988281 3.554688 -6.496094 C 3.898438 -4.96875 4.472656 -3.707031 5.234375 -2.75 C 5.960938 -1.757812 6.996094 -1.070312 8.179688 -0.613281 C 9.363281 -0.191406 10.816406 0 12.496094 0 L 21.097656 0 C 22.777344 0 24.230469 -0.191406 25.417969 -0.613281 C 26.640625 -1.070312 27.632812 -1.757812 28.398438 -2.75 C 29.160156 -3.707031 29.695312 -4.96875 30.039062 -6.496094 C 30.382812 -7.988281 30.539062 -9.824219 30.539062 -11.960938 L 30.539062 -30.195312 C 30.539062 -31.378906 29.8125 -31.492188 29.46875 -31.492188 Z M 29.46875 -31.492188 "/></g></g></g><g fill="#000000" fill-opacity="1"><g transform="translate(192.714104, 117.210985)"><g><path d="M 29.46875 -31.492188 L 4.164062 -31.492188 C 3.820312 -31.492188 3.058594 -31.378906 3.058594 -30.195312 L 3.058594 -27.210938 C 3.058594 -25.949219 3.820312 -25.835938 4.164062 -25.835938 L 13.988281 -25.835938 L 13.988281 -1.300781 C 13.988281 -0.113281 14.753906 0 15.058594 0 L 18.574219 0 C 18.917969 0 19.644531 -0.113281 19.644531 -1.300781 L 19.644531 -25.835938 L 29.46875 -25.835938 C 29.8125 -25.835938 30.574219 -25.949219 30.574219 -27.210938 L 30.574219 -30.195312 C 30.574219 -31.378906 29.8125 -31.492188 29.46875 -31.492188 Z M 29.46875 -31.492188 "/></g></g></g><g fill="#000000" fill-opacity="1"><g transform="translate(226.333158, 117.210985)"><g><path d="M 29.085938 -28.703125 C 28.320312 -29.660156 27.328125 -30.382812 26.105469 -30.84375 C 24.917969 -31.261719 23.46875 -31.492188 21.785156 -31.492188 L 12.460938 -31.492188 C 10.777344 -31.492188 9.363281 -31.261719 8.179688 -30.84375 C 6.957031 -30.382812 5.960938 -29.660156 5.199219 -28.703125 C 4.472656 -27.746094 3.898438 -26.484375 3.554688 -24.957031 C 3.210938 -23.46875 3.058594 -21.671875 3.058594 -19.53125 L 3.058594 -11.960938 C 3.058594 -9.824219 3.210938 -7.988281 3.554688 -6.496094 C 3.898438 -4.96875 4.472656 -3.707031 5.199219 -2.75 C 5.960938 -1.757812 6.957031 -1.03125 8.179688 -0.613281 C 9.324219 -0.191406 10.777344 0.0390625 12.460938 0.0390625 L 21.785156 0.0390625 C 23.46875 0.0390625 24.917969 -0.191406 26.105469 -0.613281 C 27.328125 -1.03125 28.320312 -1.757812 29.085938 -2.714844 C 29.847656 -3.707031 30.382812 -4.96875 30.730469 -6.496094 C 31.035156 -7.988281 31.226562 -9.824219 31.226562 -11.960938 L 31.226562 -19.53125 C 31.226562 -21.632812 31.035156 -23.46875 30.730469 -24.957031 C 30.382812 -26.484375 29.847656 -27.746094 29.085938 -28.703125 Z M 25.53125 -20.179688 L 25.53125 -11.273438 C 25.53125 -10.167969 25.492188 -9.210938 25.339844 -8.445312 C 25.226562 -7.757812 24.996094 -7.148438 24.691406 -6.765625 C 24.421875 -6.34375 24.039062 -6.078125 23.542969 -5.925781 C 23.046875 -5.734375 22.398438 -5.65625 21.59375 -5.65625 L 12.652344 -5.65625 C 11.847656 -5.65625 11.199219 -5.734375 10.703125 -5.925781 C 10.203125 -6.078125 9.824219 -6.34375 9.554688 -6.765625 C 9.25 -7.148438 9.058594 -7.757812 8.90625 -8.445312 C 8.789062 -9.210938 8.714844 -10.167969 8.714844 -11.273438 L 8.714844 -20.179688 C 8.714844 -21.289062 8.789062 -22.242188 8.90625 -23.007812 C 9.058594 -23.734375 9.25 -24.308594 9.554688 -24.726562 C 9.824219 -25.109375 10.203125 -25.378906 10.703125 -25.570312 C 11.199219 -25.722656 11.847656 -25.835938 12.652344 -25.835938 L 21.59375 -25.835938 C 22.398438 -25.835938 23.046875 -25.722656 23.542969 -25.570312 C 24.039062 -25.378906 24.421875 -25.109375 24.691406 -24.726562 C 24.996094 -24.308594 25.226562 -23.734375 25.339844 -23.007812 C 25.492188 -22.242188 25.53125 -21.289062 25.53125 -20.179688 Z M 25.53125 -20.179688 "/></g></g></g><g fill="#000000" fill-opacity="1"><g transform="translate(260.601686, 117.210985)"><g/></g></g><g fill="#000000" fill-opacity="1"><g transform="translate(280.237798, 117.210985)"><g><path d="M 34.972656 -31.492188 L 31.53125 -31.492188 C 30.996094 -31.492188 30.574219 -31.453125 30.195312 -31.339844 C 29.8125 -31.226562 29.46875 -31.035156 29.160156 -30.765625 C 28.894531 -30.460938 28.625 -30.117188 28.398438 -29.660156 C 28.167969 -29.199219 27.976562 -28.625 27.746094 -27.898438 L 20.984375 -11.007812 C 20.945312 -10.855469 20.90625 -10.855469 20.867188 -10.855469 L 20.484375 -10.855469 C 20.484375 -10.855469 20.410156 -10.855469 20.371094 -11.007812 L 13.644531 -27.898438 C 13.414062 -28.625 13.1875 -29.199219 12.996094 -29.660156 C 12.765625 -30.117188 12.496094 -30.460938 12.230469 -30.765625 C 11.925781 -31.035156 11.542969 -31.226562 11.160156 -31.339844 C 10.777344 -31.453125 10.320312 -31.492188 9.824219 -31.492188 L 6.304688 -31.492188 C 5.007812 -31.492188 4.128906 -31.074219 3.667969 -30.269531 C 3.25 -29.542969 3.058594 -28.320312 3.058594 -26.5625 L 3.058594 -1.300781 C 3.058594 -0.113281 3.820312 0.0390625 4.164062 0.0390625 L 7.453125 0.0390625 C 7.796875 0.0390625 8.523438 -0.113281 8.523438 -1.300781 L 8.523438 -24.269531 C 8.523438 -24.308594 8.523438 -24.347656 8.523438 -24.347656 L 8.714844 -24.347656 C 8.753906 -24.347656 8.789062 -24.347656 8.828125 -24.230469 L 15.363281 -8.0625 C 15.632812 -7.261719 15.898438 -6.574219 16.167969 -6 C 16.472656 -5.425781 16.777344 -4.96875 17.085938 -4.585938 C 17.464844 -4.203125 17.847656 -3.898438 18.308594 -3.746094 C 18.765625 -3.59375 19.261719 -3.515625 19.835938 -3.515625 L 21.402344 -3.515625 C 21.976562 -3.515625 22.511719 -3.59375 22.933594 -3.746094 C 23.390625 -3.898438 23.8125 -4.203125 24.15625 -4.585938 C 24.460938 -4.96875 24.804688 -5.425781 25.070312 -6 C 25.339844 -6.574219 25.605469 -7.261719 25.875 -8.0625 L 32.449219 -24.269531 C 32.449219 -24.347656 32.488281 -24.347656 32.523438 -24.347656 L 32.714844 -24.347656 C 32.714844 -24.347656 32.714844 -24.308594 32.714844 -24.269531 L 32.714844 -1.300781 C 32.714844 -0.113281 33.480469 0.0390625 33.785156 0.0390625 L 37.074219 0.0390625 C 37.417969 0.0390625 38.179688 -0.113281 38.179688 -1.300781 L 38.179688 -26.5625 C 38.179688 -28.320312 37.992188 -29.542969 37.570312 -30.269531 C 37.109375 -31.074219 36.230469 -31.492188 34.972656 -31.492188 Z M 34.972656 -31.492188 "/></g></g></g><g fill="#000000" fill-opacity="1"><g transform="translate(321.459592, 117.210985)"><g><path d="M 7.644531 -31.492188 L 4.128906 -31.492188 C 3.820312 -31.492188 3.058594 -31.339844 3.058594 -30.15625 L 3.058594 -1.300781 C 3.058594 -0.113281 3.820312 0.0390625 4.128906 0.0390625 L 7.644531 0.0390625 C 7.949219 0.0390625 8.714844 -0.113281 8.714844 -1.300781 L 8.714844 -30.15625 C 8.714844 -31.339844 7.949219 -31.492188 7.644531 -31.492188 Z M 7.644531 -31.492188 "/></g></g></g><g fill="#000000" fill-opacity="1"><g transform="translate(333.225534, 117.210985)"><g><path d="M 26.027344 -6.839844 L 12.574219 -6.839844 C 11.773438 -6.839844 11.121094 -6.957031 10.585938 -7.109375 C 10.089844 -7.300781 9.746094 -7.566406 9.441406 -7.949219 C 9.132812 -8.371094 8.90625 -8.945312 8.789062 -9.667969 C 8.753906 -9.859375 8.753906 -10.128906 8.714844 -10.320312 C 8.714844 -10.320312 8.753906 -13.070312 8.789062 -13.070312 L 25.875 -13.070312 C 26.179688 -13.070312 26.945312 -13.222656 26.945312 -14.410156 L 26.945312 -17.429688 C 26.945312 -18.613281 26.179688 -18.726562 25.875 -18.726562 L 6.152344 -18.6875 C 5.046875 -18.613281 4.089844 -18.039062 3.554688 -17.085938 C 3.363281 -16.777344 3.210938 -16.472656 3.132812 -16.128906 L 3.058594 -11.3125 L 3.058594 -11.121094 C 3.097656 -9.324219 3.285156 -7.796875 3.554688 -6.535156 C 3.898438 -5.007812 4.472656 -3.746094 5.199219 -2.789062 C 5.960938 -1.796875 6.957031 -1.109375 8.179688 -0.6875 C 9.363281 -0.230469 10.777344 -0.0390625 12.460938 -0.0390625 L 26.027344 -0.0390625 C 26.371094 -0.0390625 27.136719 -0.152344 27.136719 -1.335938 L 27.136719 -5.542969 C 27.136719 -6.726562 26.371094 -6.839844 26.027344 -6.839844 Z M 26.066406 -31.570312 L 4.089844 -31.570312 C 3.785156 -31.570312 3.058594 -31.417969 3.058594 -30.195312 L 3.058594 -27.210938 C 3.058594 -26.027344 3.785156 -25.914062 4.089844 -25.914062 L 26.066406 -25.875 C 26.371094 -25.875 27.136719 -26.027344 27.136719 -27.210938 L 27.136719 -30.230469 C 27.136719 -31.417969 26.371094 -31.570312 26.066406 -31.570312 Z M 26.066406 -31.570312 "/></g></g></g><g fill="#000000" fill-opacity="1"><g transform="translate(363.406177, 117.210985)"><g><path d="M 29.46875 -31.492188 L 4.164062 -31.492188 C 3.820312 -31.492188 3.058594 -31.378906 3.058594 -30.195312 L 3.058594 -27.210938 C 3.058594 -25.949219 3.820312 -25.835938 4.164062 -25.835938 L 13.988281 -25.835938 L 13.988281 -1.300781 C 13.988281 -0.113281 14.753906 0 15.058594 0 L 18.574219 0 C 18.917969 0 19.644531 -0.113281 19.644531 -1.300781 L 19.644531 -25.835938 L 29.46875 -25.835938 C 29.8125 -25.835938 30.574219 -25.949219 30.574219 -27.210938 L 30.574219 -30.195312 C 30.574219 -31.378906 29.8125 -31.492188 29.46875 -31.492188 Z M 29.46875 -31.492188 "/></g></g></g><g fill="#000000" fill-opacity="1"><g transform="translate(397.025234, 117.210985)"><g><path d="M 26.027344 -6.839844 L 12.574219 -6.839844 C 11.773438 -6.839844 11.121094 -6.957031 10.585938 -7.109375 C 10.089844 -7.300781 9.746094 -7.566406 9.441406 -7.949219 C 9.132812 -8.371094 8.90625 -8.945312 8.789062 -9.667969 C 8.753906 -9.859375 8.753906 -10.128906 8.714844 -10.320312 C 8.714844 -10.320312 8.753906 -13.070312 8.789062 -13.070312 L 25.875 -13.070312 C 26.179688 -13.070312 26.945312 -13.222656 26.945312 -14.410156 L 26.945312 -17.429688 C 26.945312 -18.613281 26.179688 -18.726562 25.875 -18.726562 L 6.152344 -18.6875 C 5.046875 -18.613281 4.089844 -18.039062 3.554688 -17.085938 C 3.363281 -16.777344 3.210938 -16.472656 3.132812 -16.128906 L 3.058594 -11.3125 L 3.058594 -11.121094 C 3.097656 -9.324219 3.285156 -7.796875 3.554688 -6.535156 C 3.898438 -5.007812 4.472656 -3.746094 5.199219 -2.789062 C 5.960938 -1.796875 6.957031 -1.109375 8.179688 -0.6875 C 9.363281 -0.230469 10.777344 -0.0390625 12.460938 -0.0390625 L 26.027344 -0.0390625 C 26.371094 -0.0390625 27.136719 -0.152344 27.136719 -1.335938 L 27.136719 -5.542969 C 27.136719 -6.726562 26.371094 -6.839844 26.027344 -6.839844 Z M 26.066406 -31.570312 L 4.089844 -31.570312 C 3.785156 -31.570312 3.058594 -31.417969 3.058594 -30.195312 L 3.058594 -27.210938 C 3.058594 -26.027344 3.785156 -25.914062 4.089844 -25.914062 L 26.066406 -25.875 C 26.371094 -25.875 27.136719 -26.027344 27.136719 -27.210938 L 27.136719 -30.230469 C 27.136719 -31.417969 26.371094 -31.570312 26.066406 -31.570312 Z M 26.066406 -31.570312 "/></g></g></g><g fill="#000000" fill-opacity="1"><g transform="translate(427.205877, 117.210985)"><g><path d="M 30.117188 -31.492188 L 26.714844 -31.492188 C 26.371094 -31.492188 25.644531 -31.378906 25.644531 -30.15625 L 25.644531 -7.183594 C 25.644531 -7.148438 25.644531 -7.148438 25.644531 -7.109375 L 25.453125 -7.109375 C 25.417969 -7.109375 25.378906 -7.109375 25.339844 -7.222656 L 13.261719 -28.703125 C 12.957031 -29.277344 12.6875 -29.734375 12.421875 -30.078125 C 12.152344 -30.460938 11.886719 -30.765625 11.617188 -30.957031 C 11.3125 -31.1875 10.96875 -31.339844 10.546875 -31.417969 C 10.167969 -31.453125 9.707031 -31.492188 9.210938 -31.492188 L 6.34375 -31.492188 C 5.234375 -31.492188 4.394531 -31.109375 3.859375 -30.421875 C 3.324219 -29.695312 3.058594 -28.433594 3.058594 -26.5625 L 3.058594 -1.300781 C 3.058594 -0.113281 3.820312 0.0390625 4.164062 0.0390625 L 7.566406 0.0390625 C 7.910156 0.0390625 8.636719 -0.113281 8.636719 -1.300781 L 8.636719 -24.269531 C 8.636719 -24.308594 8.636719 -24.347656 8.636719 -24.347656 L 8.828125 -24.347656 C 8.828125 -24.347656 8.867188 -24.347656 8.945312 -24.230469 L 21.058594 -2.75 C 21.363281 -2.140625 21.671875 -1.683594 21.9375 -1.335938 C 22.207031 -0.957031 22.472656 -0.6875 22.777344 -0.496094 C 23.085938 -0.265625 23.429688 -0.152344 23.8125 -0.078125 C 24.15625 0 24.574219 0.0390625 25.109375 0.0390625 L 27.898438 0.0390625 C 29.007812 0.0390625 29.847656 -0.34375 30.382812 -1.070312 C 30.917969 -1.757812 31.1875 -3.019531 31.1875 -4.890625 L 31.1875 -30.15625 C 31.1875 -31.378906 30.421875 -31.492188 30.117188 -31.492188 Z M 30.117188 -31.492188 "/></g></g></g></svg>