<svg xmlns="http://www.w3.org/2000/svg" xmlns:xlink="http://www.w3.org/1999/xlink" width="780" zoomAndPan="magnify" viewBox="0 0 585 135.000003" height="180" preserveAspectRatio="xMidYMid meet" version="1.0"><defs><g/><clipPath id="042a02266f"><path d="M 2.152344 0 L 582.847656 0 L 582.847656 134.007812 L 2.152344 134.007812 Z M 2.152344 0 " clip-rule="nonzero"/></clipPath><clipPath id="afa036f177"><path d="M 32.59375 6.65625 L 386 6.65625 L 386 57 L 32.59375 57 Z M 32.59375 6.65625 " clip-rule="nonzero"/></clipPath><clipPath id="8f97e72145"><path d="M 271 50 L 389.816406 50 L 389.816406 78 L 271 78 Z M 271 50 " clip-rule="nonzero"/></clipPath></defs><g clip-path="url(#042a02266f)"><path fill="#ffffff" d="M 2.152344 0 L 582.847656 0 L 582.847656 134.007812 L 2.152344 134.007812 Z M 2.152344 0 " fill-opacity="1" fill-rule="nonzero"/><path fill="#ffffff" d="M 2.152344 0 L 582.847656 0 L 582.847656 134.007812 L 2.152344 134.007812 Z M 2.152344 0 " fill-opacity="1" fill-rule="nonzero"/></g><g clip-path="url(#afa036f177)"><path fill="#000000" d="M 356.980469 42.683594 C 352.582031 41.855469 348.226562 40.765625 343.941406 39.433594 C 339.660156 38.085938 335.425781 36.546875 331.242188 34.847656 C 327.058594 33.144531 322.898438 31.320312 318.734375 29.429688 L 306.136719 23.664062 C 301.882812 21.734375 297.554688 19.832031 293.097656 18.03125 C 291.976562 17.589844 290.867188 17.132812 289.726562 16.707031 L 288.023438 16.058594 L 286.300781 15.433594 C 285.160156 15.007812 283.984375 14.621094 282.824219 14.214844 C 282.242188 14.015625 281.648438 13.828125 281.058594 13.636719 C 280.46875 13.445312 279.886719 13.246094 279.285156 13.070312 C 278.089844 12.707031 276.902344 12.339844 275.683594 12.007812 C 275.074219 11.839844 274.472656 11.664062 273.863281 11.507812 L 272.023438 11.046875 C 270.796875 10.742188 269.574219 10.421875 268.328125 10.167969 L 266.464844 9.769531 C 265.84375 9.636719 265.226562 9.496094 264.597656 9.390625 L 260.835938 8.714844 L 257.046875 8.152344 C 256.730469 8.105469 256.417969 8.054688 256.101562 8.015625 L 255.148438 7.90625 L 253.242188 7.679688 C 252.609375 7.613281 251.976562 7.523438 251.339844 7.46875 L 249.429688 7.300781 C 244.335938 6.855469 239.21875 6.652344 234.128906 6.699219 C 229.035156 6.75 223.96875 7 218.949219 7.457031 C 208.902344 8.359375 199.078125 10.058594 189.527344 12.253906 C 179.984375 14.484375 170.707031 17.222656 161.726562 20.371094 C 157.234375 21.949219 152.800781 23.605469 148.457031 25.375 C 144.105469 27.132812 139.824219 28.976562 135.617188 30.90625 C 144.625 27.894531 153.703125 25.046875 162.945312 22.605469 C 172.171875 20.128906 181.546875 18.039062 191.015625 16.410156 C 195.75 15.597656 200.515625 14.941406 205.292969 14.40625 C 207.675781 14.125 210.070312 13.917969 212.460938 13.710938 L 216.054688 13.464844 C 217.25 13.386719 218.449219 13.347656 219.648438 13.285156 C 224.433594 13.089844 229.21875 13.042969 233.972656 13.207031 L 237.53125 13.371094 C 238.714844 13.445312 239.894531 13.539062 241.074219 13.621094 L 241.957031 13.6875 L 242.839844 13.773438 L 244.597656 13.941406 C 245.183594 14.003906 245.773438 14.050781 246.355469 14.117188 L 248.105469 14.339844 L 249.851562 14.558594 C 250.433594 14.625 251.003906 14.730469 251.585938 14.816406 L 253.3125 15.085938 L 254.179688 15.21875 C 254.46875 15.265625 254.75 15.324219 255.035156 15.375 L 258.457031 16.015625 L 261.832031 16.753906 C 262.398438 16.871094 262.949219 17.023438 263.507812 17.160156 L 265.171875 17.578125 C 266.292969 17.839844 267.375 18.167969 268.46875 18.480469 L 270.109375 18.945312 C 270.652344 19.105469 271.1875 19.285156 271.726562 19.453125 C 272.808594 19.785156 273.871094 20.15625 274.941406 20.519531 C 283.480469 23.46875 291.644531 27.246094 299.828125 31.210938 C 308.023438 35.175781 316.261719 39.359375 325.109375 43.128906 C 326.796875 43.847656 328.511719 44.550781 330.25 45.230469 C 325.011719 45.636719 319.757812 45.9375 314.488281 46.160156 L 309.488281 46.34375 L 304.480469 46.464844 C 302.808594 46.515625 301.136719 46.515625 299.464844 46.539062 L 296.957031 46.566406 C 296.117188 46.574219 295.28125 46.566406 294.445312 46.566406 C 287.75 46.59375 281.039062 46.453125 274.324219 46.253906 C 267.613281 46.058594 260.890625 45.746094 254.164062 45.375 C 247.441406 45 240.707031 44.570312 233.972656 44.074219 C 220.503906 43.109375 207.015625 41.941406 193.488281 40.804688 C 179.960938 39.664062 166.390625 38.523438 152.769531 37.605469 L 147.660156 37.265625 C 145.957031 37.152344 144.25 37.042969 142.542969 36.941406 C 139.128906 36.742188 135.703125 36.566406 132.273438 36.410156 C 130.558594 36.332031 128.839844 36.273438 127.125 36.203125 L 121.964844 36.039062 C 120.238281 36.007812 118.519531 35.96875 116.792969 35.953125 L 114.207031 35.933594 C 113.34375 35.925781 112.480469 35.921875 111.617188 35.929688 C 109.890625 35.941406 108.167969 35.9375 106.4375 35.980469 L 103.847656 36.03125 C 102.984375 36.050781 102.117188 36.085938 101.253906 36.117188 L 98.664062 36.214844 L 96.078125 36.351562 C 94.351562 36.429688 92.628906 36.5625 90.90625 36.683594 C 84.019531 37.179688 77.167969 38.015625 70.429688 39.195312 C 63.695312 40.398438 57.097656 41.984375 50.761719 44.003906 C 44.425781 46.019531 38.34375 48.453125 32.726562 51.359375 C 44.867188 46.683594 57.960938 43.761719 71.230469 42.3125 C 84.523438 40.832031 97.996094 40.804688 111.402344 41.414062 C 112.238281 41.445312 113.078125 41.492188 113.917969 41.539062 L 116.433594 41.683594 C 118.109375 41.78125 119.785156 41.910156 121.460938 42.015625 L 126.488281 42.386719 C 128.167969 42.53125 129.84375 42.660156 131.519531 42.8125 C 134.871094 43.109375 138.222656 43.425781 141.582031 43.769531 C 144.9375 44.09375 148.300781 44.449219 151.65625 44.796875 C 165.09375 46.226562 178.527344 47.769531 192.007812 49.273438 C 218.960938 52.265625 246.144531 55.078125 273.714844 56.144531 C 287.492188 56.6875 301.355469 56.757812 315.226562 56.1875 C 322.160156 55.882812 329.097656 55.457031 336.007812 54.804688 C 342.921875 54.148438 349.808594 53.308594 356.652344 52.28125 L 385.226562 47.992188 Z M 356.980469 42.683594 " fill-opacity="1" fill-rule="nonzero"/></g><g clip-path="url(#8f97e72145)"><path fill="#4d74ff" d="M 281.164062 71.921875 C 291.8125 74.25 302.609375 75.96875 313.464844 76.960938 C 327.078125 78.210938 340.945312 78.386719 354.476562 76.203125 C 361.054688 75.136719 367.574219 73.492188 373.742188 70.941406 C 378.796875 68.847656 388.371094 65.445312 389.285156 59.152344 C 389.609375 56.925781 389.695312 53.554688 386.890625 51.816406 C 383.277344 49.574219 378.433594 51.835938 375.054688 53.117188 C 371.015625 54.652344 367.039062 56.285156 362.675781 57.480469 C 357.230469 58.96875 351.601562 60.210938 345.910156 61.3125 C 339.496094 62.554688 332.96875 63.667969 326.371094 64.503906 C 329.625 65.042969 335.035156 65.773438 337.957031 66.136719 C 341.457031 66.570312 344.972656 66.953125 348.507812 67.261719 C 352.222656 67.582031 356.066406 67.824219 359.910156 67.949219 C 342.800781 71.386719 313.660156 74.394531 271.289062 69.527344 C 274.621094 70.382812 277.945312 71.21875 281.164062 71.921875 Z M 281.164062 71.921875 " fill-opacity="1" fill-rule="nonzero"/></g><g fill="#000000" fill-opacity="1"><g transform="translate(15.206428, 119.182975)"><g><path d="M 27.003906 -32.046875 C 26.917969 -32.265625 26.828125 -32.527344 26.742188 -32.703125 C 26.039062 -34.984375 23.933594 -36.605469 21.523438 -36.605469 C 20.429688 -36.605469 19.375 -36.296875 18.5 -35.683594 C 18.238281 -35.550781 18.015625 -35.378906 17.84375 -35.246094 C 17.183594 -34.675781 16.527344 -33.625 15.914062 -32.046875 L 3.683594 -1.664062 C 3.550781 -1.269531 3.507812 -0.875 3.59375 -0.613281 C 3.636719 -0.351562 3.859375 0.0429688 4.558594 0.0429688 L 9.382812 0.0429688 C 9.949219 0.0429688 10.390625 -0.308594 10.609375 -0.875 L 13.109375 -7.144531 L 22.707031 -7.144531 C 23.191406 -7.144531 23.628906 -7.363281 23.847656 -7.757812 C 24.109375 -8.109375 24.15625 -8.59375 24.023438 -9.03125 L 22.445312 -12.933594 C 22.226562 -13.457031 21.742188 -13.808594 21.171875 -13.808594 L 15.738281 -13.808594 L 21.347656 -28.011719 C 21.394531 -28.101562 21.4375 -28.144531 21.4375 -28.144531 L 21.613281 -28.144531 C 21.613281 -28.144531 21.613281 -28.144531 21.65625 -28.054688 L 32.527344 -0.921875 C 32.746094 -0.308594 33.183594 0.0429688 33.800781 0.0429688 L 38.488281 0.0429688 C 39.191406 0.0429688 39.367188 -0.394531 39.453125 -0.613281 C 39.542969 -0.875 39.496094 -1.269531 39.324219 -1.664062 Z M 27.003906 -32.046875 "/></g></g></g><g fill="#000000" fill-opacity="1"><g transform="translate(58.237086, 119.182975)"><g><path d="M 33.800781 -36.121094 L 29.765625 -36.121094 C 29.371094 -36.121094 28.539062 -35.992188 28.539062 -34.632812 L 28.539062 -13.019531 C 28.539062 -11.703125 28.449219 -10.566406 28.320312 -9.730469 C 28.1875 -8.898438 27.925781 -8.242188 27.617188 -7.757812 C 27.265625 -7.320312 26.871094 -7.015625 26.300781 -6.792969 C 25.734375 -6.621094 24.945312 -6.488281 24.023438 -6.488281 L 14.554688 -6.488281 C 13.632812 -6.488281 12.84375 -6.621094 12.273438 -6.792969 C 11.703125 -7.015625 11.308594 -7.320312 10.960938 -7.757812 C 10.652344 -8.242188 10.390625 -8.898438 10.214844 -9.730469 C 10.082031 -10.566406 9.996094 -11.703125 9.996094 -13.019531 L 9.996094 -34.632812 C 9.996094 -35.992188 9.160156 -36.121094 8.765625 -36.121094 L 4.777344 -36.121094 C 4.382812 -36.121094 3.507812 -35.992188 3.507812 -34.632812 L 3.507812 -13.722656 C 3.507812 -11.265625 3.683594 -9.160156 4.078125 -7.453125 C 4.472656 -5.699219 5.128906 -4.253906 6.003906 -3.15625 C 6.839844 -2.015625 8.023438 -1.226562 9.382812 -0.703125 C 10.742188 -0.21875 12.40625 0 14.335938 0 L 24.199219 0 C 26.128906 0 27.792969 -0.21875 29.152344 -0.703125 C 30.554688 -1.226562 31.695312 -2.015625 32.570312 -3.15625 C 33.449219 -4.253906 34.0625 -5.699219 34.457031 -7.453125 C 34.851562 -9.160156 35.027344 -11.265625 35.027344 -13.722656 L 35.027344 -34.632812 C 35.027344 -35.992188 34.195312 -36.121094 33.800781 -36.121094 Z M 33.800781 -36.121094 "/></g></g></g><g fill="#000000" fill-opacity="1"><g transform="translate(96.754199, 119.182975)"><g><path d="M 33.800781 -36.121094 L 4.777344 -36.121094 C 4.382812 -36.121094 3.507812 -35.992188 3.507812 -34.632812 L 3.507812 -31.210938 C 3.507812 -29.765625 4.382812 -29.632812 4.777344 -29.632812 L 16.042969 -29.632812 L 16.042969 -1.492188 C 16.042969 -0.132812 16.921875 0 17.273438 0 L 21.304688 0 C 21.699219 0 22.53125 -0.132812 22.53125 -1.492188 L 22.53125 -29.632812 L 33.800781 -29.632812 C 34.195312 -29.632812 35.070312 -29.765625 35.070312 -31.210938 L 35.070312 -34.632812 C 35.070312 -35.992188 34.195312 -36.121094 33.800781 -36.121094 Z M 33.800781 -36.121094 "/></g></g></g><g fill="#000000" fill-opacity="1"><g transform="translate(135.315136, 119.182975)"><g><path d="M 33.359375 -32.921875 C 32.484375 -34.019531 31.34375 -34.851562 29.941406 -35.378906 C 28.582031 -35.859375 26.917969 -36.121094 24.988281 -36.121094 L 14.292969 -36.121094 C 12.363281 -36.121094 10.742188 -35.859375 9.382812 -35.378906 C 7.976562 -34.851562 6.839844 -34.019531 5.960938 -32.921875 C 5.128906 -31.828125 4.472656 -30.378906 4.078125 -28.625 C 3.683594 -26.917969 3.507812 -24.855469 3.507812 -22.402344 L 3.507812 -13.722656 C 3.507812 -11.265625 3.683594 -9.160156 4.078125 -7.453125 C 4.472656 -5.699219 5.128906 -4.253906 5.960938 -3.15625 C 6.839844 -2.015625 7.976562 -1.183594 9.382812 -0.703125 C 10.695312 -0.21875 12.363281 0.0429688 14.292969 0.0429688 L 24.988281 0.0429688 C 26.917969 0.0429688 28.582031 -0.21875 29.941406 -0.703125 C 31.34375 -1.183594 32.484375 -2.015625 33.359375 -3.113281 C 34.238281 -4.253906 34.851562 -5.699219 35.246094 -7.453125 C 35.597656 -9.160156 35.816406 -11.265625 35.816406 -13.722656 L 35.816406 -22.402344 C 35.816406 -24.8125 35.597656 -26.917969 35.246094 -28.625 C 34.851562 -30.378906 34.238281 -31.828125 33.359375 -32.921875 Z M 29.285156 -23.144531 L 29.285156 -12.933594 C 29.285156 -11.660156 29.238281 -10.566406 29.0625 -9.6875 C 28.933594 -8.898438 28.667969 -8.199219 28.320312 -7.757812 C 28.011719 -7.277344 27.574219 -6.96875 27.003906 -6.792969 C 26.433594 -6.574219 25.6875 -6.488281 24.769531 -6.488281 L 14.511719 -6.488281 C 13.589844 -6.488281 12.84375 -6.574219 12.273438 -6.792969 C 11.703125 -6.96875 11.265625 -7.277344 10.960938 -7.757812 C 10.609375 -8.199219 10.390625 -8.898438 10.214844 -9.6875 C 10.082031 -10.566406 9.996094 -11.660156 9.996094 -12.933594 L 9.996094 -23.144531 C 9.996094 -24.417969 10.082031 -25.511719 10.214844 -26.390625 C 10.390625 -27.222656 10.609375 -27.878906 10.960938 -28.363281 C 11.265625 -28.800781 11.703125 -29.109375 12.273438 -29.328125 C 12.84375 -29.503906 13.589844 -29.632812 14.511719 -29.632812 L 24.769531 -29.632812 C 25.6875 -29.632812 26.433594 -29.503906 27.003906 -29.328125 C 27.574219 -29.109375 28.011719 -28.800781 28.320312 -28.363281 C 28.667969 -27.878906 28.933594 -27.222656 29.0625 -26.390625 C 29.238281 -25.511719 29.285156 -24.417969 29.285156 -23.144531 Z M 29.285156 -23.144531 "/></g></g></g><g fill="#000000" fill-opacity="1"><g transform="translate(174.621017, 119.182975)"><g/></g></g><g fill="#000000" fill-opacity="1"><g transform="translate(197.143568, 119.182975)"><g><path d="M 40.113281 -36.121094 L 36.167969 -36.121094 C 35.550781 -36.121094 35.070312 -36.078125 34.632812 -35.945312 C 34.195312 -35.816406 33.800781 -35.597656 33.449219 -35.289062 C 33.140625 -34.9375 32.835938 -34.542969 32.570312 -34.019531 C 32.308594 -33.492188 32.089844 -32.835938 31.828125 -32 L 24.066406 -12.625 C 24.023438 -12.449219 23.980469 -12.449219 23.933594 -12.449219 L 23.496094 -12.449219 C 23.496094 -12.449219 23.410156 -12.449219 23.367188 -12.625 L 15.648438 -32 C 15.386719 -32.835938 15.125 -33.492188 14.90625 -34.019531 C 14.640625 -34.542969 14.335938 -34.9375 14.027344 -35.289062 C 13.675781 -35.597656 13.238281 -35.816406 12.800781 -35.945312 C 12.363281 -36.078125 11.835938 -36.121094 11.265625 -36.121094 L 7.234375 -36.121094 C 5.742188 -36.121094 4.734375 -35.640625 4.207031 -34.71875 C 3.726562 -33.886719 3.507812 -32.484375 3.507812 -30.46875 L 3.507812 -1.492188 C 3.507812 -0.132812 4.382812 0.0429688 4.777344 0.0429688 L 8.546875 0.0429688 C 8.941406 0.0429688 9.777344 -0.132812 9.777344 -1.492188 L 9.777344 -27.835938 C 9.777344 -27.878906 9.777344 -27.925781 9.777344 -27.925781 L 9.996094 -27.925781 C 10.039062 -27.925781 10.082031 -27.925781 10.125 -27.792969 L 17.621094 -9.25 C 17.929688 -8.328125 18.238281 -7.539062 18.542969 -6.882812 C 18.894531 -6.226562 19.246094 -5.699219 19.59375 -5.261719 C 20.035156 -4.820312 20.472656 -4.472656 21 -4.296875 C 21.523438 -4.121094 22.09375 -4.03125 22.75 -4.03125 L 24.550781 -4.03125 C 25.207031 -4.03125 25.820312 -4.121094 26.300781 -4.296875 C 26.828125 -4.472656 27.3125 -4.820312 27.707031 -5.261719 C 28.054688 -5.699219 28.449219 -6.226562 28.757812 -6.882812 C 29.0625 -7.539062 29.371094 -8.328125 29.679688 -9.25 L 37.21875 -27.835938 C 37.21875 -27.925781 37.261719 -27.925781 37.304688 -27.925781 L 37.523438 -27.925781 C 37.523438 -27.925781 37.523438 -27.878906 37.523438 -27.835938 L 37.523438 -1.492188 C 37.523438 -0.132812 38.402344 0.0429688 38.753906 0.0429688 L 42.523438 0.0429688 C 42.917969 0.0429688 43.792969 -0.132812 43.792969 -1.492188 L 43.792969 -30.46875 C 43.792969 -32.484375 43.574219 -33.886719 43.09375 -34.71875 C 42.566406 -35.640625 41.558594 -36.121094 40.113281 -36.121094 Z M 40.113281 -36.121094 "/></g></g></g><g fill="#000000" fill-opacity="1"><g transform="translate(244.424819, 119.182975)"><g><path d="M 8.765625 -36.121094 L 4.734375 -36.121094 C 4.382812 -36.121094 3.507812 -35.945312 3.507812 -34.589844 L 3.507812 -1.492188 C 3.507812 -0.132812 4.382812 0.0429688 4.734375 0.0429688 L 8.765625 0.0429688 C 9.117188 0.0429688 9.996094 -0.132812 9.996094 -1.492188 L 9.996094 -34.589844 C 9.996094 -35.945312 9.117188 -36.121094 8.765625 -36.121094 Z M 8.765625 -36.121094 "/></g></g></g><g fill="#000000" fill-opacity="1"><g transform="translate(257.920313, 119.182975)"><g><path d="M 29.851562 -7.847656 L 14.421875 -7.847656 C 13.503906 -7.847656 12.757812 -7.976562 12.144531 -8.152344 C 11.574219 -8.371094 11.179688 -8.679688 10.828125 -9.117188 C 10.476562 -9.601562 10.214844 -10.257812 10.082031 -11.089844 C 10.039062 -11.308594 10.039062 -11.617188 9.996094 -11.835938 C 9.996094 -11.835938 10.039062 -14.992188 10.082031 -14.992188 L 29.679688 -14.992188 C 30.027344 -14.992188 30.90625 -15.167969 30.90625 -16.527344 L 30.90625 -19.988281 C 30.90625 -21.347656 30.027344 -21.480469 29.679688 -21.480469 L 7.058594 -21.4375 C 5.785156 -21.347656 4.691406 -20.691406 4.078125 -19.59375 C 3.859375 -19.246094 3.683594 -18.894531 3.59375 -18.5 L 3.507812 -12.976562 L 3.507812 -12.757812 C 3.550781 -10.695312 3.769531 -8.941406 4.078125 -7.496094 C 4.472656 -5.742188 5.128906 -4.296875 5.960938 -3.199219 C 6.839844 -2.058594 7.976562 -1.269531 9.382812 -0.789062 C 10.742188 -0.261719 12.363281 -0.0429688 14.292969 -0.0429688 L 29.851562 -0.0429688 C 30.246094 -0.0429688 31.125 -0.175781 31.125 -1.535156 L 31.125 -6.355469 C 31.125 -7.714844 30.246094 -7.847656 29.851562 -7.847656 Z M 29.898438 -36.210938 L 4.691406 -36.210938 C 4.339844 -36.210938 3.507812 -36.035156 3.507812 -34.632812 L 3.507812 -31.210938 C 3.507812 -29.851562 4.339844 -29.722656 4.691406 -29.722656 L 29.898438 -29.679688 C 30.246094 -29.679688 31.125 -29.851562 31.125 -31.210938 L 31.125 -34.675781 C 31.125 -36.035156 30.246094 -36.210938 29.898438 -36.210938 Z M 29.898438 -36.210938 "/></g></g></g><g fill="#000000" fill-opacity="1"><g transform="translate(292.537404, 119.182975)"><g><path d="M 33.800781 -36.121094 L 4.777344 -36.121094 C 4.382812 -36.121094 3.507812 -35.992188 3.507812 -34.632812 L 3.507812 -31.210938 C 3.507812 -29.765625 4.382812 -29.632812 4.777344 -29.632812 L 16.042969 -29.632812 L 16.042969 -1.492188 C 16.042969 -0.132812 16.921875 0 17.273438 0 L 21.304688 0 C 21.699219 0 22.53125 -0.132812 22.53125 -1.492188 L 22.53125 -29.632812 L 33.800781 -29.632812 C 34.195312 -29.632812 35.070312 -29.765625 35.070312 -31.210938 L 35.070312 -34.632812 C 35.070312 -35.992188 34.195312 -36.121094 33.800781 -36.121094 Z M 33.800781 -36.121094 "/></g></g></g><g fill="#000000" fill-opacity="1"><g transform="translate(331.098344, 119.182975)"><g><path d="M 29.851562 -7.847656 L 14.421875 -7.847656 C 13.503906 -7.847656 12.757812 -7.976562 12.144531 -8.152344 C 11.574219 -8.371094 11.179688 -8.679688 10.828125 -9.117188 C 10.476562 -9.601562 10.214844 -10.257812 10.082031 -11.089844 C 10.039062 -11.308594 10.039062 -11.617188 9.996094 -11.835938 C 9.996094 -11.835938 10.039062 -14.992188 10.082031 -14.992188 L 29.679688 -14.992188 C 30.027344 -14.992188 30.90625 -15.167969 30.90625 -16.527344 L 30.90625 -19.988281 C 30.90625 -21.347656 30.027344 -21.480469 29.679688 -21.480469 L 7.058594 -21.4375 C 5.785156 -21.347656 4.691406 -20.691406 4.078125 -19.59375 C 3.859375 -19.246094 3.683594 -18.894531 3.59375 -18.5 L 3.507812 -12.976562 L 3.507812 -12.757812 C 3.550781 -10.695312 3.769531 -8.941406 4.078125 -7.496094 C 4.472656 -5.742188 5.128906 -4.296875 5.960938 -3.199219 C 6.839844 -2.058594 7.976562 -1.269531 9.382812 -0.789062 C 10.742188 -0.261719 12.363281 -0.0429688 14.292969 -0.0429688 L 29.851562 -0.0429688 C 30.246094 -0.0429688 31.125 -0.175781 31.125 -1.535156 L 31.125 -6.355469 C 31.125 -7.714844 30.246094 -7.847656 29.851562 -7.847656 Z M 29.898438 -36.210938 L 4.691406 -36.210938 C 4.339844 -36.210938 3.507812 -36.035156 3.507812 -34.632812 L 3.507812 -31.210938 C 3.507812 -29.851562 4.339844 -29.722656 4.691406 -29.722656 L 29.898438 -29.679688 C 30.246094 -29.679688 31.125 -29.851562 31.125 -31.210938 L 31.125 -34.675781 C 31.125 -36.035156 30.246094 -36.210938 29.898438 -36.210938 Z M 29.898438 -36.210938 "/></g></g></g><g fill="#000000" fill-opacity="1"><g transform="translate(365.715435, 119.182975)"><g><path d="M 34.542969 -36.121094 L 30.640625 -36.121094 C 30.246094 -36.121094 29.414062 -35.992188 29.414062 -34.589844 L 29.414062 -8.242188 C 29.414062 -8.199219 29.414062 -8.199219 29.414062 -8.152344 L 29.195312 -8.152344 C 29.152344 -8.152344 29.109375 -8.152344 29.0625 -8.285156 L 15.210938 -32.921875 C 14.859375 -33.578125 14.554688 -34.105469 14.246094 -34.5 C 13.941406 -34.9375 13.632812 -35.289062 13.328125 -35.507812 C 12.976562 -35.773438 12.582031 -35.945312 12.097656 -36.035156 C 11.660156 -36.078125 11.136719 -36.121094 10.566406 -36.121094 L 7.277344 -36.121094 C 6.003906 -36.121094 5.042969 -35.683594 4.425781 -34.894531 C 3.8125 -34.0625 3.507812 -32.617188 3.507812 -30.46875 L 3.507812 -1.492188 C 3.507812 -0.132812 4.382812 0.0429688 4.777344 0.0429688 L 8.679688 0.0429688 C 9.074219 0.0429688 9.90625 -0.132812 9.90625 -1.492188 L 9.90625 -27.835938 C 9.90625 -27.878906 9.90625 -27.925781 9.90625 -27.925781 L 10.125 -27.925781 C 10.125 -27.925781 10.171875 -27.925781 10.257812 -27.792969 L 24.15625 -3.15625 C 24.503906 -2.453125 24.855469 -1.929688 25.164062 -1.535156 C 25.46875 -1.097656 25.777344 -0.789062 26.128906 -0.570312 C 26.476562 -0.308594 26.871094 -0.175781 27.3125 -0.0859375 C 27.707031 0 28.1875 0.0429688 28.800781 0.0429688 L 32 0.0429688 C 33.273438 0.0429688 34.238281 -0.394531 34.851562 -1.226562 C 35.464844 -2.015625 35.773438 -3.464844 35.773438 -5.609375 L 35.773438 -34.589844 C 35.773438 -35.992188 34.894531 -36.121094 34.542969 -36.121094 Z M 34.542969 -36.121094 "/></g></g></g></svg>